<?xml version="1.0" standalone="no"?>
<!DOCTYPE svg PUBLIC "-//W3C//DTD SVG 20010904//EN"
 "http://www.w3.org/TR/2001/REC-SVG-20010904/DTD/svg10.dtd">
<svg version="1.0" xmlns="http://www.w3.org/2000/svg"
 width="500.000000pt" height="500.000000pt" viewBox="0 0 500.000000 500.000000"
 preserveAspectRatio="xMidYMid meet">

<g transform="translate(0.000000,500.000000) scale(0.100000,-0.100000)"
fill="#000000" stroke="none">
<path d="M2294 4639 c-410 -30 -858 -214 -1189 -491 -171 -142 -341 -339 -458
-528 -49 -80 -163 -312 -169 -344 -6 -34 22 -29 34 6 25 71 140 288 206 388
253 381 619 667 1052 823 384 139 834 159 1237 56 420 -107 814 -354 1089
-682 130 -155 257 -359 329 -529 23 -53 43 -88 52 -88 20 0 13 22 -68 190
-114 235 -243 413 -435 601 -361 350 -832 563 -1330 599 -154 11 -188 11 -350
-1z"/>
<path d="M2445 4187 c-21 -21 -73 -50 -155 -85 -69 -29 -143 -67 -165 -83 -51
-38 -91 -99 -100 -148 l-6 -38 -76 -7 c-123 -10 -184 -7 -243 14 -30 10 -58
16 -61 12 -4 -4 -9 -36 -11 -72 -3 -51 -14 -87 -52 -170 -73 -161 -89 -214
-82 -290 2 -36 8 -75 11 -86 6 -20 0 -23 -64 -37 -97 -22 -210 -76 -265 -127
-25 -23 -46 -46 -46 -49 0 -4 23 -18 50 -30 118 -54 187 -136 310 -369 35 -68
84 -148 109 -179 76 -94 193 -143 338 -143 l50 0 6 -45 c15 -109 89 -198 240
-291 138 -84 195 -130 217 -174 11 -22 24 -40 29 -40 4 0 21 21 38 48 17 28
51 62 84 83 30 20 100 66 156 103 56 36 118 86 138 111 41 49 75 130 75 175 0
30 0 30 60 30 135 0 244 43 317 125 27 30 85 122 133 211 128 238 182 300 305
355 25 11 45 26 45 34 0 41 -197 148 -323 176 -46 10 -57 16 -51 28 13 33 16
152 5 197 -7 27 -37 102 -68 168 -44 96 -57 134 -62 191 -7 78 -2 75 -91 50
-59 -16 -107 -18 -222 -9 l-76 7 -6 41 c-15 94 -90 157 -280 236 -69 29 -119
56 -139 77 -18 18 -34 33 -37 32 -3 0 -19 -15 -35 -32z m54 -30 c10 -13 41
-28 233 -115 83 -38 154 -102 168 -151 14 -52 13 -61 -11 -61 -13 0 -19 -5
-17 -16 3 -14 26 -16 178 -17 96 -1 191 1 211 6 l36 7 5 -47 c5 -47 19 -85 92
-250 42 -93 55 -183 37 -250 l-12 -43 -51 0 c-28 0 -49 -3 -46 -6 4 -3 64 -19
135 -35 70 -16 151 -41 180 -54 58 -26 143 -82 143 -93 0 -5 -20 -18 -45 -30
-96 -47 -170 -137 -275 -337 -83 -160 -138 -236 -197 -273 -65 -41 -117 -53
-257 -61 -82 -4 -121 -10 -124 -18 -2 -9 7 -13 28 -13 32 0 33 -1 27 -40 -14
-105 -78 -178 -247 -282 -63 -40 -137 -93 -163 -119 l-48 -47 -39 41 c-21 23
-89 73 -152 112 -146 90 -230 172 -252 245 -24 81 -22 90 19 90 26 0 33 3 29
15 -5 12 -25 15 -93 15 -172 0 -265 28 -340 103 -45 44 -78 97 -181 290 -74
139 -153 231 -235 273 -30 16 -55 32 -55 37 0 13 119 85 174 105 28 11 98 30
156 42 129 27 154 39 84 40 l-52 0 -11 44 c-22 89 -8 157 69 324 28 61 55 134
59 162 4 28 11 53 14 56 3 3 25 0 48 -6 53 -15 360 -10 371 5 13 18 9 25 -17
25 -22 0 -24 3 -18 33 18 94 78 144 269 221 50 21 104 48 120 61 34 28 38 29
53 12z"/>
<path d="M2387 3870 c-42 -11 -134 -55 -159 -77 -14 -13 -21 -12 -57 6 -48 25
-51 25 -51 6 0 -9 15 -23 34 -32 21 -10 32 -21 29 -29 -9 -24 15 -15 63 21 57
44 102 63 177 77 104 19 247 -24 313 -93 26 -27 58 -30 47 -3 -3 8 8 20 31 31
20 9 36 20 36 24 0 17 -18 17 -59 -2 l-43 -19 -33 26 c-75 57 -232 88 -328 64z"/>
<path d="M2397 3736 c-60 -22 -107 -76 -107 -123 0 -34 -20 -91 -45 -128 -29
-42 -24 -66 8 -38 27 25 77 135 77 173 0 96 187 135 275 57 17 -15 27 -36 30
-63 6 -52 30 -109 62 -152 36 -48 53 -27 20 24 -26 41 -41 83 -51 146 -16 90
-155 144 -269 104z"/>
<path d="M2146 3685 c-6 -23 -10 -24 -69 -23 -81 1 -136 -15 -188 -55 -90 -68
-148 -184 -157 -314 -4 -60 -2 -73 10 -73 12 0 17 16 20 68 10 132 71 246 162
304 42 28 62 33 123 37 60 3 74 0 79 -13 9 -23 34 -20 34 4 0 12 7 34 15 49 8
16 11 31 8 35 -14 13 -31 5 -37 -19z"/>
<path d="M2784 3688 c4 -13 9 -38 13 -55 4 -23 11 -33 24 -33 11 0 19 7 19 15
0 12 14 15 64 15 157 0 280 -141 294 -337 4 -63 7 -73 23 -73 17 0 19 6 13 58
-18 174 -91 300 -209 358 -43 21 -67 25 -128 25 -72 0 -75 1 -81 24 -4 14 -14
25 -22 25 -12 0 -15 -6 -10 -22z"/>
<path d="M2130 3518 c0 -76 -23 -170 -50 -208 -22 -31 -25 -46 -10 -55 14 -9
68 92 81 153 8 34 15 48 21 40 13 -21 9 31 -6 81 -20 69 -36 64 -36 -11z"/>
<path d="M2805 3568 c-2 -7 -9 -35 -15 -61 -8 -40 -8 -51 5 -63 8 -9 15 -25
15 -37 0 -24 40 -110 65 -142 13 -16 17 -17 24 -6 6 9 0 26 -15 49 -33 48 -47
104 -50 192 -1 44 -6 76 -13 78 -6 2 -13 -2 -16 -10z"/>
<path d="M2580 3550 c-43 -24 -136 -26 -187 -5 -39 17 -49 14 -40 -9 9 -23
109 -48 161 -41 52 8 106 38 106 60 0 18 3 18 -40 -5z"/>
<path d="M1926 3475 c-25 -38 -20 -94 16 -166 25 -51 69 -102 214 -249 235
-240 283 -315 303 -475 9 -76 32 -67 47 20 26 155 68 218 299 455 133 137 189
201 213 247 40 76 46 143 16 173 l-20 21 4 -60 c4 -52 0 -66 -29 -121 -20 -38
-42 -65 -57 -71 -13 -5 -20 -14 -17 -20 4 -6 -71 -89 -167 -187 -188 -192
-227 -248 -247 -356 -6 -33 -11 -61 -11 -63 0 -2 -4 -3 -9 -3 -5 0 -11 22 -15
49 -15 114 -67 190 -270 390 -110 110 -154 161 -153 175 1 13 -3 20 -12 18
-17 -4 -36 20 -68 86 -20 43 -24 64 -21 108 3 30 4 54 2 54 -1 0 -9 -11 -18
-25z"/>
<path d="M2200 3422 c0 -5 10 -17 22 -28 l21 -19 -18 28 c-18 28 -25 33 -25
19z"/>
<path d="M2739 3403 c-13 -16 -12 -17 4 -4 16 13 21 21 13 21 -2 0 -10 -8 -17
-17z"/>
<path d="M2650 3374 c-95 -51 -235 -53 -334 -4 -22 10 -42 18 -44 16 -2 -3 27
-19 65 -37 58 -28 79 -33 143 -33 61 0 87 6 137 29 35 15 68 34 74 41 14 18
13 17 -41 -12z"/>
<path d="M1711 3183 c10 -2 20 -19 23 -41 13 -70 37 -132 53 -132 8 0 12 6 10
13 -3 6 -13 47 -23 90 -17 76 -18 77 -48 76 -17 -1 -24 -3 -15 -6z"/>
<path d="M3195 3144 c-3 -25 -13 -64 -21 -86 -15 -44 -13 -54 10 -45 9 4 22
38 33 86 11 52 23 82 33 85 8 2 1 4 -16 5 -30 1 -32 -1 -39 -45z"/>
<path d="M1632 2978 c3 -7 20 -17 39 -21 160 -41 257 -81 366 -153 117 -78
217 -192 283 -321 30 -61 39 -70 53 -57 9 9 -48 119 -98 189 -49 69 -148 166
-217 213 -26 18 -83 50 -128 72 -45 21 -92 50 -105 64 -26 29 -48 34 -39 11 7
-18 3 -18 -66 0 -67 18 -93 19 -88 3z"/>
<path d="M3147 2975 c-9 -8 -17 -18 -19 -23 -1 -4 -42 -26 -91 -49 -105 -51
-157 -86 -236 -159 -117 -108 -251 -324 -201 -324 5 0 22 24 36 53 120 236
335 404 602 469 57 14 92 27 92 35 0 17 -22 16 -90 -2 -68 -18 -71 -18 -64 0
8 19 -10 19 -29 0z"/>
<path d="M2106 2315 c3 -8 25 -17 52 -20 157 -20 230 -60 305 -165 l17 -25 18
25 c65 93 148 142 272 160 73 11 101 22 87 36 -13 13 -169 -16 -228 -42 -35
-16 -76 -45 -103 -74 l-44 -47 -44 45 c-52 54 -140 97 -228 111 -90 15 -111
14 -104 -4z"/>
<path d="M342 2994 c-30 -21 -27 -44 23 -181 25 -67 43 -103 52 -103 19 0 14
22 -33 146 -19 51 -34 96 -34 102 0 17 31 23 70 12 70 -19 138 -126 256 -400
74 -175 136 -271 184 -285 l24 -8 -29 38 c-62 82 -93 135 -134 231 -24 54 -63
141 -87 193 -47 99 -46 103 19 76 10 -4 17 -3 17 3 0 21 -32 42 -64 42 -28 0
-37 7 -65 49 -53 83 -147 123 -199 85z"/>
<path d="M4526 3000 c-33 -10 -88 -60 -117 -107 -15 -25 -28 -33 -56 -35 -25
-2 -41 -11 -52 -28 -15 -23 -15 -24 4 -16 68 28 68 29 -11 -150 -96 -220 -109
-244 -166 -320 -27 -35 -47 -64 -44 -64 48 0 125 106 192 267 68 164 151 326
190 372 36 41 96 67 128 55 22 -8 21 -12 -24 -135 -44 -120 -46 -129 -27 -129
15 0 97 210 97 247 0 25 -35 53 -65 52 -11 0 -33 -5 -49 -9z"/>
<path d="M696 2803 c4 -10 19 -34 34 -53 44 -57 106 -169 146 -264 44 -105
121 -195 179 -213 36 -11 35 -10 -34 56 -54 51 -78 84 -102 137 -68 153 -113
234 -157 290 -49 60 -77 80 -66 47z"/>
<path d="M4205 2764 c-38 -48 -95 -154 -173 -324 -9 -19 -49 -67 -89 -107 -66
-65 -70 -71 -41 -62 37 10 129 97 152 143 8 17 39 83 69 146 30 63 70 136 89
161 35 46 58 82 58 93 0 18 -24 -1 -65 -50z"/>
<path d="M1103 2759 c-41 -15 -45 -41 -16 -108 14 -34 28 -60 29 -58 2 2 -3
28 -10 58 -15 66 -12 79 19 79 57 0 113 -85 154 -233 25 -89 50 -151 57 -144
8 8 -42 217 -64 269 -40 91 -119 156 -169 137z"/>
<path d="M3761 2725 c-48 -44 -88 -131 -111 -245 -10 -48 -21 -98 -25 -110 -5
-15 -4 -20 4 -16 6 4 28 64 50 134 55 173 100 242 160 242 30 0 33 -14 16 -81
-9 -34 -14 -63 -12 -65 5 -5 57 116 57 132 0 20 -36 44 -68 44 -22 0 -44 -11
-71 -35z"/>
<path d="M413 2677 c2 -7 26 -79 52 -162 53 -167 77 -222 141 -312 60 -83 91
-105 142 -97 87 14 218 -57 370 -200 95 -89 81 -56 -23 53 -112 118 -215 174
-325 176 l-74 1 -53 70 c-76 101 -96 142 -148 316 -38 123 -52 158 -67 161
-12 4 -18 1 -15 -6z"/>
<path d="M4527 2677 c-10 -7 -37 -77 -63 -162 -50 -166 -71 -210 -147 -311
l-52 -68 -71 -1 c-101 0 -200 -50 -304 -154 -114 -114 -144 -164 -40 -68 152
140 272 204 360 193 33 -4 52 -2 67 9 35 25 107 124 145 200 32 62 132 364
125 372 -2 1 -11 -3 -20 -10z"/>
<path d="M13 2603 c-17 -26 -17 -27 25 -102 23 -42 87 -165 143 -274 60 -121
115 -215 139 -241 39 -42 60 -58 320 -228 149 -98 420 -311 615 -483 71 -62
137 -110 185 -135 83 -42 102 -59 124 -112 9 -19 22 -38 29 -41 33 -12 -12 99
-52 131 -9 6 -52 31 -96 54 -114 61 -215 165 -343 355 -118 174 -211 284 -341
403 -72 67 -91 89 -91 111 0 15 5 31 11 34 13 8 -35 45 -112 86 -51 27 -65 43
-145 162 -96 143 -205 266 -258 291 -19 9 -57 16 -85 16 -44 0 -53 -4 -68 -27z
m143 -19 c50 -24 132 -118 237 -274 97 -142 126 -169 212 -196 l52 -17 -14
-27 c-20 -42 -5 -68 92 -156 119 -109 213 -218 306 -356 44 -65 77 -118 74
-118 -3 0 -51 38 -108 83 -158 129 -331 255 -455 332 -212 130 -211 130 -337
375 -60 118 -125 243 -144 276 -20 36 -32 68 -28 78 8 21 68 21 113 0z"/>
<path d="M4792 2613 c-50 -25 -154 -144 -256 -293 -80 -118 -97 -137 -142
-160 -69 -35 -116 -70 -111 -84 3 -6 8 -19 12 -29 6 -14 -20 -45 -122 -145
-156 -152 -191 -195 -314 -377 -120 -179 -242 -305 -344 -354 -104 -49 -155
-106 -155 -171 0 -31 19 -15 40 35 20 46 44 67 135 113 35 18 132 93 230 177
282 242 486 396 704 530 161 100 193 138 319 385 61 118 125 243 143 276 32
60 33 62 16 88 -15 23 -24 26 -70 26 -28 0 -67 -8 -85 -17z m131 -27 c3 -8
-24 -68 -60 -133 -36 -64 -97 -181 -135 -259 -38 -78 -84 -160 -103 -182 -19
-22 -75 -66 -125 -98 -284 -184 -395 -264 -571 -410 -49 -41 -89 -72 -89 -69
0 4 36 59 79 123 86 126 175 229 314 361 93 90 108 117 84 154 -15 24 -15 24
41 41 84 27 113 53 211 199 101 150 185 246 233 270 42 21 114 22 121 3z"/>
<path d="M1100 2545 c2 -42 41 -190 54 -203 15 -15 16 -15 16 3 -1 44 -28 142
-48 175 -12 19 -22 31 -22 25z"/>
<path d="M3833 2502 c-20 -34 -49 -159 -40 -168 2 -2 11 4 19 13 13 16 53 182
45 190 -2 1 -13 -14 -24 -35z"/>
<path d="M1146 2289 c10 -51 18 -62 76 -106 57 -44 88 -56 95 -36 5 13 -2 17
-49 27 -34 8 -75 51 -83 87 -3 15 -15 35 -26 45 -19 17 -19 16 -13 -17z"/>
<path d="M1350 2313 c0 -15 157 -217 222 -285 40 -43 74 -70 93 -74 27 -6 21
3 -56 82 -47 49 -114 127 -149 174 -54 75 -110 126 -110 103z"/>
<path d="M3583 2303 c-7 -2 -49 -51 -93 -109 -44 -57 -113 -136 -153 -175 -65
-65 -69 -72 -42 -65 37 8 138 112 233 239 92 123 93 126 55 110z"/>
<path d="M3792 2298 c-7 -7 -12 -19 -12 -27 0 -42 -62 -100 -107 -101 -24 0
-38 -15 -28 -30 8 -14 45 3 102 46 54 41 58 46 68 92 7 33 -2 41 -23 20z"/>
<path d="M877 2244 c6 -15 23 -19 23 -5 0 5 -7 11 -14 14 -10 4 -13 1 -9 -9z"/>
<path d="M4071 2251 c-8 -6 -9 -11 -3 -15 6 -3 14 -1 17 5 9 14 2 20 -14 10z"/>
<path d="M1097 2229 c6 -8 31 -25 55 -38 52 -29 29 -4 -27 30 -22 13 -35 16
-28 8z"/>
<path d="M914 2218 c-17 -27 120 -117 179 -118 44 0 28 19 -32 40 -30 10 -69
33 -90 54 -40 39 -46 42 -57 24z"/>
<path d="M3813 2204 c-48 -28 -59 -43 -15 -20 30 16 70 45 62 46 -3 0 -24 -12
-47 -26z"/>
<path d="M3992 2193 c-24 -20 -66 -44 -95 -54 -53 -18 -63 -32 -28 -37 45 -7
181 79 181 114 0 21 -11 17 -58 -23z"/>
<path d="M1700 1910 c14 -11 70 -49 125 -83 230 -143 335 -241 404 -380 65
-128 94 -270 106 -502 7 -148 13 -185 27 -185 8 0 9 47 5 163 -14 359 -73 540
-231 705 -43 45 -84 82 -90 82 -6 0 -23 13 -38 28 -37 37 -266 178 -303 186
l-30 7 25 -21z"/>
<path d="M3240 1921 c-36 -11 -249 -147 -285 -182 -17 -16 -36 -29 -41 -29
-16 0 -147 -139 -179 -190 -88 -139 -127 -310 -141 -609 -6 -129 -5 -153 7
-149 10 3 16 37 21 134 19 335 59 494 163 639 72 102 136 153 393 319 116 74
127 87 62 67z"/>
<path d="M1238 1823 c29 -52 33 -53 202 -78 269 -41 361 -80 472 -206 45 -50
60 -61 70 -51 9 9 -8 31 -78 100 -126 125 -183 148 -484 192 -99 14 -142 25
-163 41 -25 18 -28 19 -19 2z"/>
<path d="M3694 1814 c-12 -8 -94 -26 -185 -39 -192 -29 -279 -54 -357 -105
-62 -40 -172 -152 -172 -176 0 -25 24 -15 49 22 30 43 102 108 156 139 65 38
151 62 305 84 199 30 197 29 221 62 22 32 16 36 -17 13z"/>
<path d="M890 1066 c0 -20 149 -165 261 -256 299 -240 689 -401 1089 -450 109
-13 371 -13 480 0 394 48 798 213 1085 445 103 83 240 211 254 239 30 56 -3
35 -111 -70 -62 -60 -147 -134 -188 -165 -130 -97 -334 -218 -347 -205 -9 8
-32 223 -33 294 0 81 -23 82 -28 1 -3 -50 13 -247 25 -296 4 -17 -3 -26 -35
-42 -122 -62 -439 -149 -607 -166 -33 -3 -75 -8 -92 -11 l-33 -5 0 181 c0 153
-2 180 -15 180 -13 0 -15 -27 -15 -180 l0 -180 -100 0 -100 0 0 180 c0 153 -2
180 -15 180 -13 0 -15 -27 -15 -180 l0 -179 -52 5 c-120 12 -307 47 -402 76
-109 32 -303 105 -309 116 -3 4 2 57 10 117 15 124 14 256 -3 262 -7 2 -13
-39 -18 -124 -7 -132 -18 -219 -29 -229 -8 -8 -142 65 -249 138 -105 70 -240
182 -328 272 -66 67 -80 77 -80 52z"/>
</g>
</svg>
